# xmcd
#
# Track frame offsets:
#	150
#	13561
#	31054
#	41848
#	56168
#	73857
#	87787
#	101254
#	121242
#	140072
#	155909
#	173209
#	188500
#	202108
#	218528
#
# Disc length: 3059 seconds
#
# Revision: 0
# Processed by: cddbd v1.5.2PL0 Copyright (c) Steve Scherf et al.
# Submitted via: EasyCDDAExtractor 12.0.4.1
#
DISCID=d10bf10f
DTITLE=Tuomari Nurmio - 15 Klassikkoa
DYEAR=1900
DGENRE=
TTITLE0=Lemmenloruja
TTITLE1=Amore
TTITLE2=Yksi pieni sydän
TTITLE3=Villi yö
TTITLE4=Oi täysikuu
TTITLE5=Rahamies
TTITLE6=Sinulle
TTITLE7=Huono ihminen
TTITLE8=Mustat kyyneleet
TTITLE9=Kappale kauneinta luontoa
TTITLE10=Kokonaan sun
TTITLE11=Sätkyukko
TTITLE12=Rakkauden voima
TTITLE13=Kurjuuden kuningas
TTITLE14=Paha tyttö
EXTD=
EXTT0=
EXTT1=
EXTT2=
EXTT3=
EXTT4=
EXTT5=
EXTT6=
EXTT7=
EXTT8=
EXTT9=
EXTT10=
EXTT11=
EXTT12=
EXTT13=
EXTT14=
PLAYORDER=
